Coordinates
version=1
nRows=5
nColumns=42
inDegrees=yes

Units are S.I. units (second, meters, Newtons, ...)
If the header above contains a line with 'inDegrees', this indicates whether rotational values are in degrees (yes) or radians (no).

endheader
time	pelvis_tilt	pelvis_list	pelvis_rotation	pelvis_tx	pelvis_ty	pelvis_tz	hip_flexion_r	hip_adduction_r	hip_rotation_r	knee_angle_r	knee_adduction_r	knee_angle_r_beta	ankle_angle_r	subtalar_angle_r	mtp_angle_r	hip_flexion_l	hip_adduction_l	hip_rotation_l	knee_angle_l	knee_adduction_l	knee_angle_l_beta	ankle_angle_l	subtalar_angle_l	mtp_angle_l	lumbar_extension	lumbar_bending	lumbar_rotation	arm_flex_r	arm_add_r	arm_rot_r	elbow_flex_r	pro_sup_r	wrist_flex_r	wrist_dev_r	arm_flex_l	arm_add_l	arm_rot_l	elbow_flex_l	pro_sup_l	wrist_flex_l	wrist_dev_l
      2.94000000	     -1.08368102	     -2.02101676	     -2.41464515	      1.12987798	      0.88112329	     -0.14309537	    -10.03165187	     -2.16873867	     -3.57661979	      6.33120370	     12.38725530	      0.11050035	     16.92579363	      4.32361495	     -7.50024674	     23.47194778	    -12.57306554	     -5.97403161	     15.97861075	     16.17239624	      0.27887937	      3.58904985	     -4.90364943	     -7.50024674	    -14.98869999	      5.00545843	      2.49045492	     -6.83732579	    -14.21033434	     -3.12264686	     18.69261032	     90.00000001	      0.00000000	      0.00000000	    -13.16198926	     -7.24348438	      8.03683617	     21.98936193	     90.00000001	      0.00000000	      0.00000000
      2.95000000	     -1.13102025	     -2.22394135	     -2.61638859	      1.14005590	      0.87916402	     -0.14331528	    -10.59520127	     -2.02273711	     -3.62917259	      6.60873256	     12.40506069	      0.11534414	     17.29348227	      4.31658149	     -7.50023728	     23.52149053	    -12.63631471	     -6.91316225	     13.39844171	     15.73146228	      0.23384692	      3.61255276	     -3.82437236	     -7.50023728	    -14.97544364	      5.05814845	      2.64825967	     -6.86305619	    -14.27704589	     -3.05971644	     18.65100043	     90.00000001	      0.00000000	      0.00000000	    -13.27027582	     -7.09821977	      8.07475947	     22.05310587	     90.00000001	      0.00000000	      0.00000000
      2.96000000	     -1.42689432	     -2.60768917	     -2.61876057	      1.15020079	      0.87674365	     -0.14374937	    -10.95702843	     -1.60777868	     -3.88438738	      6.78575367	     12.36006525	      0.11843374	     17.52339397	      4.29000084	     -7.50023463	     24.27834931	    -12.86196814	     -8.02103218	     11.85392287	     15.25700362	      0.20688998	      3.63040191	     -3.26373077	     -7.50023463	    -14.67560358	      5.35694651	      2.63578879	     -6.94720560	    -14.35961736	     -3.04253221	     18.68949376	     90.00000001	      0.00000000	      0.00000000	    -13.43802825	     -6.95219485	      8.10051994	     22.20212370	     90.00000001	      0.00000000	      0.00000000
      2.97000000	     -1.18163377	     -2.51273046	     -3.05596343	      1.16093011	      0.87527281	     -0.14394138	    -11.84583037	     -1.94510211	     -3.70830002	      7.07560210	     12.48760684	      0.12349255	     17.93935380	      4.51733405	     -7.50022527	     23.53414510	    -12.60802433	     -9.01006241	      8.94830217	     14.87145289	      0.15617734	      3.85957174	     -1.74412047	     -7.50022527	    -14.97085850	      4.99907179	      2.99899124	     -6.98279895	    -14.36786309	     -2.95902863	     18.61238155	     90.00000001	      0.00000000	      0.00000000	    -13.51736884	     -6.88946565	      8.17596910	     22.33790511	     90.00000001	      0.00000000	      0.00000000
      2.98000000	     -1.36974320	     -2.75938470	     -3.27449726	      1.17146259	      0.87311179	     -0.14425186	    -12.28102584	     -1.77688037	     -3.63171194	      7.34255610	     12.47008701	      0.12815178	     18.20832179	      4.63727424	     -7.50022078	     23.82783032	    -12.75108424	     -9.90203400	      7.32577572	     14.58489005	      0.12785891	      4.11903397	     -0.99729078	     -7.50022078	    -14.78693070	      5.07493933	      3.18881440	     -7.05451642	    -14.40858779	     -2.92544935	     18.56536962	     90.00000001	      0.00000000	      0.00000000	    -13.67589891	     -6.79574958	      8.21945290	     22.53199361	     90.00000001	      0.00000000	      0.00000000
